<svg width="60" height="60" viewBox="0 0 60 60" fill="none" xmlns="http://www.w3.org/2000/svg">
<rect width="60" height="60" rx="30" fill="black"/>
<path d="M29.996 22.3034C25.7369 22.3034 22.2997 25.7407 22.2997 29.9997C22.2997 34.2588 25.7369 37.696 29.996 37.696C34.255 37.696 37.6923 34.2588 37.6923 29.9997C37.6923 25.7407 34.255 22.3034 29.996 22.3034ZM29.996 35.0018C27.2417 35.0018 24.9939 32.754 24.9939 29.9997C24.9939 27.2454 27.2417 24.9977 29.996 24.9977C32.7503 24.9977 34.998 27.2454 34.998 29.9997C34.998 32.754 32.7503 35.0018 29.996 35.0018ZM38.0075 20.1945C37.0131 20.1945 36.2101 20.9976 36.2101 21.992C36.2101 22.9864 37.0131 23.7894 38.0075 23.7894C39.0019 23.7894 39.8049 22.9901 39.8049 21.992C39.8052 21.7558 39.7589 21.522 39.6687 21.3038C39.5785 21.0856 39.4461 20.8873 39.2791 20.7203C39.1122 20.5534 38.9139 20.421 38.6957 20.3307C38.4775 20.2405 38.2436 20.1942 38.0075 20.1945V20.1945ZM44.9983 29.9997C44.9983 27.9284 45.0171 25.8758 44.9008 23.8082C44.7844 21.4066 44.2366 19.2752 42.4804 17.519C40.7205 15.7591 38.5929 15.215 36.1913 15.0987C34.1199 14.9824 32.0673 15.0011 29.9997 15.0011C27.9284 15.0011 25.8758 14.9824 23.8082 15.0987C21.4066 15.215 19.2752 15.7629 17.519 17.519C15.7591 19.2789 15.215 21.4066 15.0987 23.8082C14.9824 25.8795 15.0011 27.9321 15.0011 29.9997C15.0011 32.0673 14.9824 34.1237 15.0987 36.1913C15.215 38.5929 15.7629 40.7243 17.519 42.4804C19.2789 44.2403 21.4066 44.7844 23.8082 44.9008C25.8795 45.0171 27.9321 44.9983 29.9997 44.9983C32.0711 44.9983 34.1237 45.0171 36.1913 44.9008C38.5929 44.7844 40.7243 44.2366 42.4804 42.4804C44.2403 40.7205 44.7844 38.5929 44.9008 36.1913C45.0208 34.1237 44.9983 32.0711 44.9983 29.9997V29.9997ZM41.6962 38.848C41.4222 39.531 41.092 40.0413 40.5629 40.5667C40.0338 41.0958 39.5272 41.426 38.8443 41.6999C36.8705 42.4842 32.1837 42.3078 29.996 42.3078C27.8083 42.3078 23.1177 42.4842 21.1439 41.7037C20.461 41.4297 19.9506 41.0995 19.4253 40.5704C18.8962 40.0413 18.566 39.5347 18.292 38.8518C17.5115 36.8742 17.6879 32.1874 17.6879 29.9997C17.6879 27.812 17.5115 23.1215 18.292 21.1477C18.566 20.4647 18.8962 19.9544 19.4253 19.429C19.9544 18.9037 20.461 18.5697 21.1439 18.2958C23.1177 17.5153 27.8083 17.6916 29.996 17.6916C32.1837 17.6916 36.8742 17.5153 38.848 18.2958C39.531 18.5697 40.0413 18.8999 40.5667 19.429C41.0958 19.9581 41.426 20.4647 41.6999 21.1477C42.4804 23.1215 42.3041 27.812 42.3041 29.9997C42.3041 32.1874 42.4804 36.8742 41.6962 38.848Z" fill="white"/>
</svg>
