<svg width="60" height="60" viewBox="0 0 60 60" fill="none" xmlns="http://www.w3.org/2000/svg">
<rect width="60" height="60" rx="30" fill="black"/>
<path d="M41.9283 24.0685C41.9413 24.3326 41.9462 24.6 41.9462 24.8641C41.9462 33 35.7554 42.3783 24.4353 42.3783C20.9576 42.3783 17.7245 41.3592 15 39.6114C16.6115 39.8063 18.2456 39.6817 19.8089 39.2447C21.3722 38.8077 22.834 38.0669 24.1109 37.0647C22.8268 37.0404 21.5823 36.6155 20.5516 35.8493C19.5208 35.0831 18.7553 34.0139 18.362 32.7913C19.2849 32.9639 20.2347 32.9277 21.1418 32.6853C19.7488 32.4029 18.4963 31.6475 17.5965 30.5471C16.6968 29.4468 16.2051 28.0692 16.2049 26.6478V26.5712C17.0596 27.0466 18.0154 27.311 18.9929 27.3424C17.6884 26.4727 16.7649 25.1379 16.411 23.6105C16.0571 22.0831 16.2995 20.4782 17.0886 19.1234C18.6339 21.0252 20.562 22.5807 22.7476 23.6888C24.9333 24.797 27.3276 25.4329 29.775 25.5554C29.6691 25.095 29.6161 24.6241 29.6168 24.1516C29.6168 23.3437 29.776 22.5436 30.0853 21.7971C30.3945 21.0507 30.8478 20.3725 31.4192 19.8012C31.9906 19.2299 32.6689 18.7769 33.4155 18.4678C34.162 18.1588 34.9621 17.9998 35.7701 18C36.6122 17.9986 37.4455 18.1703 38.2185 18.5043C38.9915 18.8384 39.6875 19.3277 40.2636 19.9419C41.6415 19.6691 42.9631 19.1641 44.1717 18.4484C43.712 19.8737 42.7502 21.0835 41.4652 21.8527C42.6852 21.7081 43.8767 21.3817 45 20.8842C44.1748 22.1208 43.1344 23.1993 41.9283 24.0685Z" fill="white"/>
</svg>
